<?xml version="1.0" encoding="UTF-8"?>
<svg id="Layer_1" data-name="Layer 1" xmlns="http://www.w3.org/2000/svg" viewBox="0 0 586.51 186.12">
  <g>
    <path d="M102.09,47.44c-16.15-2.08-34.9-1.23-45.05,13.45,1.34.09,7.9.06,8.2.33.72.65.1,8.36,2.93,8.93,8.46-17.39,32.7-17.95,49.78-18.01-7.15-6.5-30.68-18.7-26.98-30.39.66-2.09,3.51-4.23,5.66-4.72,16.7-3.82,24.9,22.01,26.43,34.64l9.38-22.8c3.16-7.83,14.1-16.66,20.63-7.1,6.72,9.84-15.02,22.62-20.93,28.02,19.77,4.96,37.09-19.72,56.33-10.59l8.02,5.63c.26-2.16-1.43-7.58-.69-9.04.55-1.1,4.97-1.5,6.35-1.81s3.09.68,2.43-1.71c-16.35-11.71-32.6-3.9-46.67,6.9,1.14-4.29,4.25-6.4,5.17-11.23,1.29-6.83-1.92-14.06-7.86-17.87-11.25-7.21-21.86,1.66-26.17,12.22l-5.27,14.91c-.3-15.03-12.02-31.58-27.72-32.96-9.81-.86-17.75,4.47-18.82,14.59-1.57,14.88,14.75,21.66,24.84,28.61Z" fill="#b11f89"/>
    <polygon points="42.23 81.45 220.09 46.09 225.33 45.05 222.96 49.92 162.93 172.98 161.7 175.51 158.75 175.55 7 177.78 7 163.94 158.75 166.18 154.57 168.75 218.19 47.51 221.06 51.34 42.23 81.45 42.23 81.45" fill="#b11f89"/>
  </g>
  <polygon points="61.51 85.47 101.39 78.78 98.86 123.02 131.04 73.96 200.66 62.46 150.09 157.72 107.54 157.72 155.88 94.69 94.68 152.11 79.39 152.11 70.06 101.8 58.57 157.45 24.71 157.45 61.51 85.47" fill="#ea1363"/>
  <text transform="translate(219.11 111.42)" fill="#ea1363" font-size="81.32"><tspan x="0" y="0" font-family="Calgary-Demo, CalgaryDemo" letter-spacing="0em">M</tspan><tspan x="74" y="0" font-family="Calgary-Demo, CalgaryDemo">eemah</tspan><tspan x="300.89" y="0" font-family="MyriadPro-Regular, &apos;Myriad Pro&apos;">&apos;</tspan><tspan x="316.17" y="0" font-family="Calgary-Demo, CalgaryDemo">s </tspan></text>
  <text transform="translate(220.73 158.59)" fill="#b11f89" font-family="Raleway, Raleway" font-size="49.53"><tspan x="0" y="0">PE</tspan><tspan x="61.12" y="0" letter-spacing="-.07em">T</tspan><tspan x="88.02" y="0" letter-spacing="0em">A</tspan><tspan x="121.65" y="0" letter-spacing="-.03em">L</tspan><tspan x="149.54" y="0"> </tspan><tspan x="162.22" y="0" letter-spacing="-.05em">P</tspan><tspan x="190.65" y="0" letter-spacing="0em">ALACE</tspan></text>
</svg>