<?xml version="1.0" encoding="UTF-8"?>
<svg id="Layer_1" xmlns="http://www.w3.org/2000/svg" version="1.1" viewBox="0 0 150 50.16">
  <!-- Generator: Adobe Illustrator 29.5.0, SVG Export Plug-In . SVG Version: 2.1.0 Build 137)  -->
  <defs>
    <style>
      .st0 {
        fill: #fff;
      }
    </style>
  </defs>
  <path class="st0" d="M35.07,14.12c-.22-3-2.11-4.84-5.22-3.99-1.9.85-11.04,11.29-11.93,11.29l-.49-.23L6.9,10.67c-2.08-1.57-5.07-.65-5.81,1.85-.54,1.85-.58,11.43-.28,13.53.19,1.33,1.31,2.47,2.71,2.29,1.22-.16,2.06-1.61,2.06-2.74v-9.67l9.1,8.96-11.74,11.7c-1.5,2.29,1,4.7,3.24,3.23l11.74-11.7,10.79,10.74c2.54,2.12,5.83.63,6.32-2.52-.36-7.23.55-15.04.03-22.2ZM30.51,33.84l-9.11-8.96,9.11-8.96v17.91Z"/>
  <path class="st0" d="M53.27,29.06c-.7.16-.64-.85-.91-1.36-2.08-3.87-4.25-7.71-6.38-11.55-.43-.74-3.87-.58-4.1-.24l-.07,19.69c.25.76,2.83.24,3.56.39v-14.09c.36.05.45.45.6.71,1.62,2.7,3.72,8.17,5.52,10.27.86,1,2.24,1.02,3.09,0,2.08-3.63,3.71-7.56,6.12-10.98v14.09h3.35V15.69h-3.71l-7.07,13.38Z"/>
  <path class="st0" d="M148.18,32.51c-1.11-.91-2.22.64-3.51.84-3.15.48-4.73-1.05-5.14-4.04h9.23c.68,0,.63-1.79.6-2.27-.61-7.7-11.8-7.58-13.15-.22-1.24,6.75,4.22,11.26,10.65,8.71,1.58-.63,3.13-1.54,1.33-3.01ZM144.57,24.16c1.13.53,2.05,2.99,1.32,2.99h-6.11c.05-2.52,2.44-4.09,4.79-2.99Z"/>
  <path class="st0" d="M107.55,22.37c-1.79-1.49-4.51-1.26-6.44-.2-.39.22-.77.82-1,.92-.49.2-.4-.81-.72-1.19-.57-.67-2.75-.65-2.75-.13v14.21c.73-.15,3.31.37,3.56-.39.42-1.68-.46-9.36.09-10.31.11-.19,1.57-.99,1.91-1.08,1.81-.49,3.55.31,3.55,2.34v9.43c.73-.15,3.31.37,3.56-.39-.25-3.33,1-10.92-1.76-13.23Z"/>
  <path class="st0" d="M68.77,22.42c-.36.21-1.24.7-1.34,1.07-.09.34.43,1.47.69,1.63,1.24.75,2.68-.9,3.98-1.06,2.49-.3,3.25,1.33,2.97,3.56-3.17.15-8.76.85-8.54,5.1.23,4.39,6.62,4.32,8.9,1.59.75,1.94,1.23,1.77,3.23,1.67v-10.39c0-.11-.41-1.18-.51-1.41-1.6-3.64-6.38-3.57-9.39-1.77ZM75.31,31.8c-.35,1.81-5.65,3.37-5.25.02.03-.28.1-.56.29-.78.45-.54,4.03-1.4,4.57-1.24.53.15.47,1.57.38,2.01Z"/>
  <path class="st0" d="M113.58,22.42c-.81.49-1.63.76-1.19,1.8,1,2.34,2.96.11,4.31-.11,2.65-.45,3.49,1.1,3.42,3.53-3.54.22-9.06.67-8.64,5.39.37,4.21,6.52,3.92,8.76,1.31.67,1.87,1.31,1.76,3.23,1.67v-10.39c0-.11-.41-1.18-.51-1.41-1.59-3.62-6.4-3.57-9.39-1.77ZM120.07,32c-.4,1.37-3.84,2.39-4.92,1.31-.31-.31-.38-1.26-.25-1.68.38-1.28,3.31-1.7,4.46-1.79,1.03-.08.93,1.44.71,2.17Z"/>
  <path class="st0" d="M94.48,21.77c.14-.44-.08-.32-.35-.35-4.51-.6-4.06,2.29-6.47,5.01-.46,0-2.48-4.27-3.07-4.7-.79-.58-3-.2-4-.31-.35.32,4.17,6.27,4.51,7.08l-4.75,7.49h3.47c.46,0,3.07-5.26,3.83-5.26.31,0,2.66,5.26,3.36,5.26h3.71l-4.75-7.56c-.07-.72,4.13-5.42,4.51-6.65Z"/>
  <path class="st0" d="M131.79,33.32c-.27-.08-.89-.86-.89-1.04v-8h3.83v-2.63h-3.83v-4.54c-3.96-.88-2.25,2.83-3.33,4.39-.33.48-2.06.31-2.16.41-.05.05-.21,1.14-.21,1.31.02,1.52,1.92.88,2.12,1.06.38.36-.59,8.14.62,10.25,1.27,2.23,5.27,2.09,7.05.61.36-.3.18-.21.05-.51-1.36-3.12-1.78-.87-3.23-1.31Z"/>
</svg>