<?xml version="1.0" encoding="UTF-8"?>
<svg id="a" data-name="Layer 1" xmlns="http://www.w3.org/2000/svg" viewBox="0 0 150 35">
  <defs>
    <style>
      .b {
        isolation: isolate;
      }

      .c {
        fill: #f7f8f9;
      }
    </style>
  </defs>
  <path class="c" d="M3.84,32.61h0c-.91-.91-.91-2.4,0-3.31l12.03-12.03s.02-.05,0-.06L6.26,7.59s-.08,0-.08.03v10.85c0,1.29-1.05,2.34-2.34,2.34h0c-1.29,0-2.34-1.05-2.34-2.34V5.5c0-1.56.93-2.96,2.38-3.55,1.44-.6,3.09-.27,4.19.83l11.11,11.11s.05.02.06,0L30.36,2.78c1.22-1.22,3.11-1.49,4.65-.61,1.22.7,1.92,2.06,1.92,3.47v23.19c0,1.41-.7,2.77-1.92,3.47-1.54.88-3.43.61-4.65-.61l-11.11-11.11s-.05-.02-.06,0l-12.03,12.03c-.91.91-2.4.91-3.31,0h0ZM22.56,17.27l9.61,9.61s.08,0,.08-.03V7.62s-.05-.06-.08-.03l-9.61,9.61s-.02.05,0,.06h0Z"/>
  <g class="b">
    <path class="c" d="M64.31,7.03v20.05h-3.29v-12.95c0-.52.03-1.08.08-1.68l-6.06,11.39c-.29.55-.73.82-1.32.82h-.53c-.59,0-1.03-.27-1.32-.82l-6.13-11.43c.03.31.05.61.07.9.02.3.03.57.03.82v12.95h-3.29V7.03h2.82c.17,0,.31,0,.43.01.12,0,.23.03.33.07.1.04.18.1.26.18.08.08.15.19.23.33l6,11.14c.16.3.3.6.44.92.13.31.27.64.4.97.13-.34.26-.67.4-.99s.29-.63.44-.92l5.92-11.11c.07-.14.15-.25.24-.33.08-.08.17-.14.27-.18.1-.04.21-.06.33-.07.12,0,.26-.01.43-.01h2.82Z"/>
  </g>
  <g class="b">
    <path class="c" d="M67.54,14.84c1.64-1.5,3.61-2.25,5.91-2.25.83,0,1.58.14,2.23.41.66.27,1.21.65,1.66,1.14.45.49.8,1.07,1.03,1.74.24.68.35,1.41.35,2.22v8.99h-1.55c-.32,0-.57-.05-.75-.15-.18-.1-.31-.29-.42-.59l-.3-1.03c-.36.32-.71.61-1.05.85-.34.25-.7.45-1.07.62-.37.17-.77.29-1.19.38-.42.09-.89.13-1.39.13-.6,0-1.16-.08-1.66-.24-.51-.16-.95-.4-1.32-.73-.37-.32-.66-.73-.86-1.21-.2-.48-.31-1.04-.31-1.68,0-.36.06-.72.18-1.07.12-.36.32-.7.59-1.02.27-.32.63-.63,1.06-.92.43-.29.97-.54,1.6-.75.63-.21,1.37-.39,2.21-.52.84-.13,1.8-.22,2.88-.24v-.83c0-.95-.2-1.66-.61-2.11-.41-.46-.99-.69-1.76-.69-.55,0-1.01.06-1.38.19-.37.13-.69.28-.96.44-.28.16-.53.31-.76.44-.23.13-.48.19-.76.19-.24,0-.44-.06-.61-.19-.17-.12-.3-.27-.4-.44l-.61-1.1ZM75.39,21.01c-.99.05-1.82.13-2.5.26-.67.12-1.22.28-1.62.48-.41.19-.7.42-.87.68-.18.26-.26.54-.26.85,0,.6.18,1.03.53,1.29.36.26.82.39,1.39.39.7,0,1.31-.13,1.82-.38.51-.25,1.01-.64,1.5-1.16v-2.4Z"/>
    <path class="c" d="M94.65,27.08h-3.3c-.25,0-.45-.06-.6-.19-.15-.13-.28-.28-.38-.44l-3.01-4.95c-.05.16-.1.31-.16.44-.06.14-.13.27-.2.39l-2.66,4.12c-.1.16-.23.3-.37.44-.15.13-.33.2-.55.2h-3.06l4.88-7.34-4.69-6.89h3.3c.25,0,.43.03.55.1.12.07.23.18.32.34l2.98,4.74c.1-.31.24-.62.43-.93l2.4-3.74c.2-.34.47-.51.79-.51h3.15l-4.67,6.74,4.87,7.49Z"/>
    <path class="c" d="M99.63,14.6c.29-.29.59-.55.91-.8.32-.24.66-.45,1.01-.62s.74-.31,1.14-.4c.41-.1.85-.15,1.33-.15.78,0,1.47.13,2.07.4.6.26,1.1.63,1.5,1.11.4.48.71,1.04.92,1.71.21.66.31,1.39.31,2.18v9.06h-3.43v-9.06c0-.87-.2-1.54-.6-2.02-.4-.48-1-.71-1.82-.71-.59,0-1.15.13-1.66.4-.52.27-1.01.63-1.47,1.1v10.29h-3.43v-14.23h2.09c.44,0,.74.21.87.62l.24,1.12Z"/>
  </g>
  <g class="b">
    <path class="c" d="M111.74,14.84c1.64-1.5,3.61-2.25,5.91-2.25.83,0,1.58.14,2.23.41.66.27,1.21.65,1.66,1.14.45.49.8,1.07,1.03,1.74.24.68.35,1.41.35,2.22v8.99h-1.55c-.32,0-.57-.05-.75-.15-.18-.1-.31-.29-.42-.59l-.3-1.03c-.36.32-.71.61-1.05.85-.34.25-.7.45-1.07.62-.37.17-.77.29-1.19.38-.42.09-.89.13-1.39.13-.6,0-1.16-.08-1.66-.24-.51-.16-.95-.4-1.32-.73-.37-.32-.66-.73-.86-1.21-.2-.48-.3-1.04-.3-1.68,0-.36.06-.72.18-1.07.12-.36.32-.7.59-1.02.27-.32.63-.63,1.06-.92.43-.29.97-.54,1.6-.75.63-.21,1.37-.39,2.21-.52.84-.13,1.8-.22,2.88-.24v-.83c0-.95-.2-1.66-.61-2.11s-.99-.69-1.76-.69c-.55,0-1.01.06-1.38.19-.37.13-.69.28-.96.44-.28.16-.53.31-.76.44-.23.13-.48.19-.76.19-.24,0-.44-.06-.61-.19-.17-.12-.3-.27-.4-.44l-.61-1.1ZM119.59,21.01c-.99.05-1.82.13-2.5.26-.67.12-1.22.28-1.62.48-.41.19-.7.42-.87.68-.18.26-.26.54-.26.85,0,.6.18,1.03.53,1.29.36.26.82.39,1.39.39.7,0,1.31-.13,1.82-.38.51-.25,1.01-.64,1.5-1.16v-2.4Z"/>
  </g>
  <g class="b">
    <path class="c" d="M130.7,27.3c-1.24,0-2.19-.35-2.85-1.05-.66-.7-.99-1.66-.99-2.89v-7.95h-1.46c-.19,0-.34-.06-.47-.18-.13-.12-.19-.3-.19-.54v-1.36l2.29-.37.72-3.88c.05-.18.13-.33.26-.43.13-.1.3-.15.5-.15h1.78v4.48h3.8v2.44h-3.8v7.71c0,.44.11.79.33,1.04.22.25.52.37.89.37.21,0,.39-.03.53-.08s.27-.1.37-.16c.11-.06.2-.11.28-.16.08-.05.17-.08.25-.08.1,0,.18.03.25.08.06.05.13.13.21.23l1.03,1.66c-.5.42-1.07.73-1.72.94-.65.21-1.32.32-2.01.32Z"/>
  </g>
  <g class="b">
    <path class="c" d="M138.8,20.4c.06.73.18,1.36.39,1.89.2.53.47.97.8,1.32.33.35.73.61,1.19.78.46.17.96.26,1.52.26s1.03-.06,1.44-.19c.4-.13.75-.27,1.05-.43.3-.16.56-.3.79-.43.23-.13.45-.19.66-.19.29,0,.5.11.64.32l.98,1.25c-.38.44-.8.82-1.28,1.12-.47.3-.96.54-1.48.72-.51.18-1.04.31-1.57.38-.53.07-1.05.11-1.55.11-.99,0-1.91-.16-2.76-.49-.85-.33-1.59-.81-2.22-1.46-.63-.64-1.12-1.44-1.48-2.39s-.54-2.05-.54-3.29c0-.97.16-1.88.47-2.74.31-.85.76-1.6,1.35-2.23.59-.63,1.3-1.13,2.15-1.5.85-.37,1.8-.55,2.86-.55.9,0,1.72.14,2.48.43.76.29,1.41.71,1.96,1.26.55.55.97,1.23,1.28,2.02.31.8.46,1.71.46,2.74,0,.52-.06.87-.17,1.05s-.32.27-.64.27h-8.81ZM145.33,18.33c0-.44-.06-.86-.19-1.26-.12-.39-.31-.74-.56-1.03-.25-.3-.57-.53-.95-.7-.38-.17-.83-.26-1.34-.26-.99,0-1.77.28-2.34.85-.57.56-.93,1.36-1.09,2.4h6.46Z"/>
  </g>
</svg>